<svg width="20" height="20" viewBox="0 0 20 20" fill="none" xmlns="http://www.w3.org/2000/svg">
<path d="M13.4097 14.6783C11.7399 15.937 9.63851 16.5307 7.53338 16.3387C5.42824 16.1468 3.47766 15.1835 2.07881 13.645C0.679961 12.1065 -0.0619809 10.1085 0.00405863 8.05789C0.0700982 6.00725 0.939153 4.05812 2.43427 2.60739C3.92939 1.15666 5.93814 0.313409 8.05152 0.24933C10.1649 0.185251 12.224 0.905166 13.8096 2.26249C15.3951 3.61981 16.3879 5.51248 16.5857 7.55512C16.7836 9.59776 16.1717 11.6368 14.8745 13.257L19.6936 17.9155C20.1016 18.3099 20.1022 18.9505 19.695 19.3456C19.2878 19.7407 18.6273 19.7404 18.2204 19.3449L13.4201 14.6783H13.4097ZM8.31916 14.3558C9.13773 14.3558 9.94829 14.1993 10.7045 13.8954C11.4608 13.5914 12.148 13.1459 12.7268 12.5843C13.3056 12.0226 13.7647 11.3559 14.078 10.6221C14.3913 9.88826 14.5525 9.10177 14.5525 8.3075C14.5525 7.51323 14.3913 6.72673 14.078 5.99292C13.7647 5.25911 13.3056 4.59235 12.7268 4.03072C12.148 3.46909 11.4608 3.02357 10.7045 2.71962C9.94829 2.41566 9.13773 2.25922 8.31916 2.25922C6.66598 2.25922 5.08051 2.89645 3.91153 4.03072C2.74256 5.16499 2.08583 6.70339 2.08583 8.3075C2.08583 9.9116 2.74256 11.45 3.91153 12.5843C5.08051 13.7185 6.66598 14.3558 8.31916 14.3558Z" fill="#EA510D"/>
</svg>
